{
    "asset" : {
        "generator" : "Khronos glTF Blender I/O v1.6.16",
        "version" : "2.0"
    },
    "scene" : 0,
    "scenes" : [
        {
            "name" : "Scene",
            "nodes" : [
                0,
                1
            ]
        }
    ],
    "nodes" : [
        {
            "mesh" : 0,
            "name" : "guarda_dir.001"
        },
        {
            "mesh" : 1,
            "name" : "Plane.001",
            "rotation" : [
                -0.5,
                0.5,
                -0.4999999701976776,
                0.5
            ],
            "scale" : [
                0.0583919994533062,
                0.0583919994533062,
                0.04129635542631149
            ],
            "translation" : [
                0.04873509705066681,
                0.7602729201316833,
                -4.034940719604492
            ]
        }
    ],
    "materials" : [
        {
            "alphaMode" : "BLEND",
            "doubleSided" : true,
            "name" : "vidro",
            "pbrMetallicRoughness" : {
                "baseColorFactor" : [
                    0.0331047922372818,
                    0.033104777336120605,
                    0.0331047847867012,
                    0.37727272510528564
                ],
                "metallicFactor" : 0,
                "roughnessFactor" : 0
            }
        },
        {
            "doubleSided" : true,
            "name" : "metal.001",
            "pbrMetallicRoughness" : {
                "baseColorFactor" : [
                    0.252942830324173,
                    0.252942830324173,
                    0.252942830324173,
                    1
                ],
                "roughnessFactor" : 0.5
            }
        }
    ],
    "meshes" : [
        {
            "name" : "Cube.001",
            "primitives" : [
                {
                    "attributes" : {
                        "POSITION" : 0,
                        "NORMAL" : 1,
                        "TEXCOORD_0" : 2
                    },
                    "indices" : 3,
                    "material" : 0
                }
            ]
        },
        {
            "name" : "Plane.001",
            "primitives" : [
                {
                    "attributes" : {
                        "POSITION" : 4,
                        "NORMAL" : 5,
                        "TEXCOORD_0" : 6
                    },
                    "indices" : 7,
                    "material" : 1
                }
            ]
        }
    ],
    "accessors" : [
        {
            "bufferView" : 0,
            "componentType" : 5126,
            "count" : 6,
            "max" : [
                0.04873509705066681,
                0.7560498714447021,
                3.554940700531006
            ],
            "min" : [
                0.04873509705066681,
                -1.1439502239227295,
                -4.034940719604492
            ],
            "type" : "VEC3"
        },
        {
            "bufferView" : 1,
            "componentType" : 5126,
            "count" : 6,
            "type" : "VEC3"
        },
        {
            "bufferView" : 2,
            "componentType" : 5126,
            "count" : 6,
            "type" : "VEC2"
        },
        {
            "bufferView" : 3,
            "componentType" : 5123,
            "count" : 6,
            "type" : "SCALAR"
        },
        {
            "bufferView" : 4,
            "componentType" : 5126,
            "count" : 305,
            "max" : [
                16.105695724487305,
                5.368229949453962e-08,
                0.8766151666641235
            ],
            "min" : [
                -0.2889564037322998,
                -130.2216339111328,
                -0.8766151666641235
            ],
            "type" : "VEC3"
        },
        {
            "bufferView" : 5,
            "componentType" : 5126,
            "count" : 305,
            "type" : "VEC3"
        },
        {
            "bufferView" : 6,
            "componentType" : 5126,
            "count" : 305,
            "type" : "VEC2"
        },
        {
            "bufferView" : 7,
            "componentType" : 5123,
            "count" : 348,
            "type" : "SCALAR"
        }
    ],
    "bufferViews" : [
        {
            "buffer" : 0,
            "byteLength" : 72,
            "byteOffset" : 0
        },
        {
            "buffer" : 0,
            "byteLength" : 72,
            "byteOffset" : 72
        },
        {
            "buffer" : 0,
            "byteLength" : 48,
            "byteOffset" : 144
        },
        {
            "buffer" : 0,
            "byteLength" : 12,
            "byteOffset" : 192
        },
        {
            "buffer" : 0,
            "byteLength" : 3660,
            "byteOffset" : 204
        },
        {
            "buffer" : 0,
            "byteLength" : 3660,
            "byteOffset" : 3864
        },
        {
            "buffer" : 0,
            "byteLength" : 2440,
            "byteOffset" : 7524
        },
        {
            "buffer" : 0,
            "byteLength" : 696,
            "byteOffset" : 9964
        }
    ],
    "buffers" : [
        {
            "byteLength" : 10660,
            "uri" : "data:application/octet-stream;base64,"
        }
    ]
}
