{
    "asset" : {
        "generator" : "Khronos glTF Blender I/O v1.6.16",
        "version" : "2.0"
    },
    "scene" : 0,
    "scenes" : [
        {
            "extras" : {
                "skinify" : {
                    "connect_mesh" : 0,
                    "connect_parents" : 0,
                    "generate_all" : 0,
                    "thickness" : 0.800000011920929,
                    "finger_thickness" : 0.25,
                    "apply_mod" : 1,
                    "parent_armature" : 1,
                    "sub_level" : 1
                },
                "blosm" : {
                    "defaultLevels" : [
                        {
                            "levels" : 4,
                            "weight" : 10
                        },
                        {
                            "levels" : 5,
                            "weight" : 40
                        },
                        {
                            "levels" : 6,
                            "weight" : 10
                        }
                    ]
                },
                "blenderkitUI" : {
                    "assetbar_on" : 0,
                    "turn_off" : 0
                },
                "uuid" : "762696a2-0909-4fe9-b76e-2ce165082618",
                "b_export" : 1,
                "export_path" : "/media/nerdlab/KINGSTON/vinny-ari/exports/",
                "s_project_name" : "air_01",
                "b_settings" : 1,
                "b_stats" : 1,
                "b_joystick" : 1,
                "b_cubemap" : 1,
                "b_camera_cube" : 1,
                "b_cast_shadows" : 1,
                "b_use_default_lights" : 1,
                "b_renderer" : 0,
                "b_aa" : 1,
                "b_colorManagement" : 1,
                "b_physicallyCorrectLights" : 1,
                "b_player" : 1,
                "b_raycast" : 1,
                "f_player_height" : 2,
                "f_player_speed" : 0.5,
                "b_interactive" : 0,
                "b_bake_lightmap" : 0,
                "s_output" : "exporting...",
                "sun_pos_properties" : {
                    "day_of_year" : 224
                }
            },
            "name" : "Scene",
            "nodes" : [
                0
            ]
        }
    ],
    "nodes" : [
        {
            "extras" : {},
            "mesh" : 0,
            "name" : "floor"
        }
    ],
    "materials" : [
        {
            "doubleSided" : true,
            "name" : "floor",
            "pbrMetallicRoughness" : {
                "baseColorFactor" : [
                    0.2821956276893616,
                    0.35117411613464355,
                    0.48689714074134827,
                    1
                ],
                "metallicFactor" : 0
            }
        },
        {
            "doubleSided" : true,
            "name" : "walls",
            "pbrMetallicRoughness" : {
                "baseColorFactor" : [
                    0.800000011920929,
                    0.800000011920929,
                    0.800000011920929,
                    1
                ],
                "metallicFactor" : 0,
                "roughnessFactor" : 0.5
            }
        }
    ],
    "meshes" : [
        {
            "name" : "Cube.003",
            "primitives" : [
                {
                    "attributes" : {
                        "POSITION" : 0,
                        "NORMAL" : 1,
                        "TEXCOORD_0" : 2
                    },
                    "indices" : 3,
                    "material" : 0
                },
                {
                    "attributes" : {
                        "POSITION" : 4,
                        "NORMAL" : 5,
                        "TEXCOORD_0" : 6
                    },
                    "indices" : 7,
                    "material" : 1
                }
            ]
        }
    ],
    "accessors" : [
        {
            "bufferView" : 0,
            "componentType" : 5126,
            "count" : 145,
            "max" : [
                16.37483024597168,
                0.1322464495897293,
                20.58285903930664
            ],
            "min" : [
                -14.125170707702637,
                0.1322464495897293,
                -27.41714096069336
            ],
            "type" : "VEC3"
        },
        {
            "bufferView" : 1,
            "componentType" : 5126,
            "count" : 145,
            "type" : "VEC3"
        },
        {
            "bufferView" : 2,
            "componentType" : 5126,
            "count" : 145,
            "type" : "VEC2"
        },
        {
            "bufferView" : 3,
            "componentType" : 5123,
            "count" : 357,
            "type" : "SCALAR"
        },
        {
            "bufferView" : 4,
            "componentType" : 5126,
            "count" : 1070,
            "max" : [
                16.87483024597168,
                4.011380672454834,
                21.08285903930664
            ],
            "min" : [
                -14.625171661376953,
                -3.867753744125366,
                -27.917139053344727
            ],
            "type" : "VEC3"
        },
        {
            "bufferView" : 5,
            "componentType" : 5126,
            "count" : 1070,
            "type" : "VEC3"
        },
        {
            "bufferView" : 6,
            "componentType" : 5126,
            "count" : 1070,
            "type" : "VEC2"
        },
        {
            "bufferView" : 7,
            "componentType" : 5123,
            "count" : 2589,
            "type" : "SCALAR"
        }
    ],
    "bufferViews" : [
        {
            "buffer" : 0,
            "byteLength" : 1740,
            "byteOffset" : 0
        },
        {
            "buffer" : 0,
            "byteLength" : 1740,
            "byteOffset" : 1740
        },
        {
            "buffer" : 0,
            "byteLength" : 1160,
            "byteOffset" : 3480
        },
        {
            "buffer" : 0,
            "byteLength" : 714,
            "byteOffset" : 4640
        },
        {
            "buffer" : 0,
            "byteLength" : 12840,
            "byteOffset" : 5356
        },
        {
            "buffer" : 0,
            "byteLength" : 12840,
            "byteOffset" : 18196
        },
        {
            "buffer" : 0,
            "byteLength" : 8560,
            "byteOffset" : 31036
        },
        {
            "buffer" : 0,
            "byteLength" : 5178,
            "byteOffset" : 39596
        }
    ],
    "buffers" : [
        {
            "byteLength" : 44776,
            "uri" : "data:application/octet-stream;base64,"
        }
    ]
}
