{
    "asset" : {
        "generator" : "Khronos glTF Blender I/O v1.6.16",
        "version" : "2.0"
    },
    "scene" : 0,
    "scenes" : [
        {
            "extras" : {
                "skinify" : {
                    "connect_mesh" : 0,
                    "connect_parents" : 0,
                    "generate_all" : 0,
                    "thickness" : 0.800000011920929,
                    "finger_thickness" : 0.25,
                    "apply_mod" : 1,
                    "parent_armature" : 1,
                    "sub_level" : 1
                },
                "blosm" : {
                    "defaultLevels" : [
                        {
                            "levels" : 4,
                            "weight" : 10
                        },
                        {
                            "levels" : 5,
                            "weight" : 40
                        },
                        {
                            "levels" : 6,
                            "weight" : 10
                        }
                    ]
                },
                "blenderkitUI" : {
                    "assetbar_on" : 0,
                    "turn_off" : 0
                },
                "uuid" : "762696a2-0909-4fe9-b76e-2ce165082618",
                "b_export" : 1,
                "export_path" : "/media/nerdlab/KINGSTON/vinny-ari/exports/",
                "s_project_name" : "air_01",
                "b_settings" : 1,
                "b_stats" : 1,
                "b_joystick" : 1,
                "b_cubemap" : 1,
                "b_camera_cube" : 1,
                "b_cast_shadows" : 1,
                "b_use_default_lights" : 1,
                "b_renderer" : 0,
                "b_aa" : 1,
                "b_colorManagement" : 1,
                "b_physicallyCorrectLights" : 1,
                "b_player" : 1,
                "b_raycast" : 1,
                "f_player_height" : 2,
                "f_player_speed" : 0.5,
                "b_interactive" : 0,
                "b_bake_lightmap" : 0,
                "s_output" : "exporting...",
                "sun_pos_properties" : {
                    "day_of_year" : 224
                }
            },
            "name" : "Scene",
            "nodes" : [
                0
            ]
        }
    ],
    "nodes" : [
        {
            "extras" : {},
            "mesh" : 0,
            "name" : "grass.001"
        }
    ],
    "materials" : [
        {
            "name" : "agua",
            "pbrMetallicRoughness" : {
                "baseColorFactor" : [
                    0.04958755895495415,
                    0.12314826250076294,
                    0.22025755047798157,
                    0.595588207244873
                ],
                "metallicFactor" : 0,
                "roughnessFactor" : 0
            }
        }
    ],
    "meshes" : [
        {
            "name" : "Cube.006",
            "primitives" : [
                {
                    "attributes" : {
                        "POSITION" : 0,
                        "NORMAL" : 1,
                        "TANGENT" : 2,
                        "TEXCOORD_0" : 3
                    },
                    "indices" : 4,
                    "material" : 0
                }
            ]
        }
    ],
    "accessors" : [
        {
            "bufferView" : 0,
            "componentType" : 5126,
            "count" : 18,
            "max" : [
                20.734045028686523,
                0,
                5.835421085357666
            ],
            "min" : [
                -19.265954971313477,
                0,
                -7.167710304260254
            ],
            "type" : "VEC3"
        },
        {
            "bufferView" : 1,
            "componentType" : 5126,
            "count" : 18,
            "type" : "VEC3"
        },
        {
            "bufferView" : 2,
            "componentType" : 5126,
            "count" : 18,
            "type" : "VEC4"
        },
        {
            "bufferView" : 3,
            "componentType" : 5126,
            "count" : 18,
            "type" : "VEC2"
        },
        {
            "bufferView" : 4,
            "componentType" : 5123,
            "count" : 30,
            "type" : "SCALAR"
        }
    ],
    "bufferViews" : [
        {
            "buffer" : 0,
            "byteLength" : 216,
            "byteOffset" : 0
        },
        {
            "buffer" : 0,
            "byteLength" : 216,
            "byteOffset" : 216
        },
        {
            "buffer" : 0,
            "byteLength" : 288,
            "byteOffset" : 432
        },
        {
            "buffer" : 0,
            "byteLength" : 144,
            "byteOffset" : 720
        },
        {
            "buffer" : 0,
            "byteLength" : 60,
            "byteOffset" : 864
        }
    ],
    "buffers" : [
        {
            "byteLength" : 924,
            "uri" : "data:application/octet-stream;base64,"
        }
    ]
}
