{
    "asset" : {
        "generator" : "Khronos glTF Blender I/O v1.6.16",
        "version" : "2.0"
    },
    "scene" : 0,
    "scenes" : [
        {
            "extras" : {
                "skinify" : {
                    "connect_mesh" : 0,
                    "connect_parents" : 0,
                    "generate_all" : 0,
                    "thickness" : 0.800000011920929,
                    "finger_thickness" : 0.25,
                    "apply_mod" : 1,
                    "parent_armature" : 1,
                    "sub_level" : 1
                },
                "blosm" : {
                    "defaultLevels" : [
                        {
                            "levels" : 4,
                            "weight" : 10
                        },
                        {
                            "levels" : 5,
                            "weight" : 40
                        },
                        {
                            "levels" : 6,
                            "weight" : 10
                        }
                    ]
                },
                "blenderkitUI" : {
                    "assetbar_on" : 0,
                    "turn_off" : 0
                },
                "uuid" : "762696a2-0909-4fe9-b76e-2ce165082618",
                "b_export" : 1,
                "export_path" : "/media/nerdlab/KINGSTON/vinny-ari/exports/",
                "s_project_name" : "air_01",
                "b_settings" : 1,
                "b_stats" : 1,
                "b_joystick" : 1,
                "b_cubemap" : 1,
                "b_camera_cube" : 1,
                "b_cast_shadows" : 1,
                "b_use_default_lights" : 1,
                "b_renderer" : 0,
                "b_aa" : 1,
                "b_colorManagement" : 1,
                "b_physicallyCorrectLights" : 1,
                "b_player" : 1,
                "b_raycast" : 1,
                "f_player_height" : 2,
                "f_player_speed" : 0.5,
                "b_interactive" : 0,
                "b_bake_lightmap" : 0,
                "s_output" : "exporting...",
                "sun_pos_properties" : {
                    "day_of_year" : 224
                }
            },
            "name" : "Scene",
            "nodes" : [
                0
            ]
        }
    ],
    "nodes" : [
        {
            "extras" : {},
            "mesh" : 0,
            "name" : "grass"
        }
    ],
    "materials" : [
        {
            "doubleSided" : true,
            "name" : "fundo_agua",
            "pbrMetallicRoughness" : {
                "baseColorFactor" : [
                    0.5814640522003174,
                    0.3659057021141052,
                    0.05186313018202782,
                    1
                ],
                "metallicFactor" : 0,
                "roughnessFactor" : 0.5
            }
        },
        {
            "doubleSided" : true,
            "name" : "passadeira",
            "pbrMetallicRoughness" : {
                "baseColorFactor" : [
                    0.027630729600787163,
                    0.2529432773590088,
                    0.023544756695628166,
                    1
                ],
                "metallicFactor" : 0,
                "roughnessFactor" : 0.5
            }
        }
    ],
    "meshes" : [
        {
            "name" : "Cube",
            "primitives" : [
                {
                    "attributes" : {
                        "POSITION" : 0,
                        "NORMAL" : 1,
                        "TANGENT" : 2,
                        "TEXCOORD_0" : 3
                    },
                    "indices" : 4,
                    "material" : 0
                },
                {
                    "attributes" : {
                        "POSITION" : 5,
                        "NORMAL" : 6,
                        "TANGENT" : 7,
                        "TEXCOORD_0" : 8
                    },
                    "indices" : 9,
                    "material" : 1
                }
            ]
        }
    ],
    "accessors" : [
        {
            "bufferView" : 0,
            "componentType" : 5126,
            "count" : 45,
            "max" : [
                23.78385353088379,
                0.5749644637107849,
                5.819263935089111
            ],
            "min" : [
                -22.21614646911621,
                -0.4016905426979065,
                -10.183868408203125
            ],
            "type" : "VEC3"
        },
        {
            "bufferView" : 1,
            "componentType" : 5126,
            "count" : 45,
            "type" : "VEC3"
        },
        {
            "bufferView" : 2,
            "componentType" : 5126,
            "count" : 45,
            "type" : "VEC4"
        },
        {
            "bufferView" : 3,
            "componentType" : 5126,
            "count" : 45,
            "type" : "VEC2"
        },
        {
            "bufferView" : 4,
            "componentType" : 5123,
            "count" : 84,
            "type" : "SCALAR"
        },
        {
            "bufferView" : 5,
            "componentType" : 5126,
            "count" : 118,
            "max" : [
                23.78385353088379,
                0.5749644637107849,
                5.819263935089111
            ],
            "min" : [
                -22.21614646911621,
                -0.4016905426979065,
                -10.183867454528809
            ],
            "type" : "VEC3"
        },
        {
            "bufferView" : 6,
            "componentType" : 5126,
            "count" : 118,
            "type" : "VEC3"
        },
        {
            "bufferView" : 7,
            "componentType" : 5126,
            "count" : 118,
            "type" : "VEC4"
        },
        {
            "bufferView" : 8,
            "componentType" : 5126,
            "count" : 118,
            "type" : "VEC2"
        },
        {
            "bufferView" : 9,
            "componentType" : 5123,
            "count" : 234,
            "type" : "SCALAR"
        }
    ],
    "bufferViews" : [
        {
            "buffer" : 0,
            "byteLength" : 540,
            "byteOffset" : 0
        },
        {
            "buffer" : 0,
            "byteLength" : 540,
            "byteOffset" : 540
        },
        {
            "buffer" : 0,
            "byteLength" : 720,
            "byteOffset" : 1080
        },
        {
            "buffer" : 0,
            "byteLength" : 360,
            "byteOffset" : 1800
        },
        {
            "buffer" : 0,
            "byteLength" : 168,
            "byteOffset" : 2160
        },
        {
            "buffer" : 0,
            "byteLength" : 1416,
            "byteOffset" : 2328
        },
        {
            "buffer" : 0,
            "byteLength" : 1416,
            "byteOffset" : 3744
        },
        {
            "buffer" : 0,
            "byteLength" : 1888,
            "byteOffset" : 5160
        },
        {
            "buffer" : 0,
            "byteLength" : 944,
            "byteOffset" : 7048
        },
        {
            "buffer" : 0,
            "byteLength" : 468,
            "byteOffset" : 7992
        }
    ],
    "buffers" : [
        {
            "byteLength" : 8460,
            "uri" : "data:application/octet-stream;base64,"
        }
    ]
}
