{
    "asset" : {
        "generator" : "Khronos glTF Blender I/O v1.6.9",
        "version" : "2.0"
    },
    "scene" : 0,
    "scenes" : [
        {
            "extras" : {
                "skinify" : {
                    "connect_mesh" : 0,
                    "connect_parents" : 0,
                    "generate_all" : 0,
                    "thickness" : 0.800000011920929,
                    "finger_thickness" : 0.25,
                    "apply_mod" : 1,
                    "parent_armature" : 1,
                    "sub_level" : 1
                },
                "blosm" : {
                    "defaultLevels" : [
                        {
                            "levels" : 4,
                            "weight" : 10
                        },
                        {
                            "levels" : 5,
                            "weight" : 40
                        },
                        {
                            "levels" : 6,
                            "weight" : 10
                        }
                    ]
                },
                "blenderkitUI" : {
                    "assetbar_on" : 0,
                    "turn_off" : 0
                },
                "uuid" : "a4bd558c-f66f-45f2-b32f-1ffa536b8531",
                "b_export" : 1,
                "export_path" : "/media/nafergo/KINGSTON/vinny-ari/exports/",
                "s_project_name" : "ar-vm_06",
                "b_settings" : 1,
                "b_renderer" : 1,
                "b_aa" : 1,
                "b_colorManagement" : 1,
                "b_physicallyCorrectLights" : 0,
                "b_player" : 1,
                "b_raycast" : 1,
                "f_player_height" : 1.5,
                "f_player_speed" : 0.20000000298023224,
                "b_cast_shadows" : 1,
                "b_use_default_lights" : 1,
                "b_cubemap" : 1,
                "b_camera_cube" : 1,
                "s_output" : "exporting...",
                "sun_pos_properties" : {
                    "day_of_year" : 232
                },
                "uiListCollec" : [
                    {
                        "idx" : 0,
                        "val" : -0.800000011920929,
                        "color" : [
                            0,
                            0,
                            0,
                            1
                        ]
                    },
                    {
                        "idx" : 1,
                        "val" : 0.20000001788139343,
                        "color" : [
                            1,
                            1,
                            1,
                            1
                        ]
                    }
                ],
                "b_interactive" : 1
            },
            "name" : "Scene",
            "nodes" : [
                0
            ]
        }
    ],
    "nodes" : [
        {
            "extras" : {},
            "mesh" : 0,
            "name" : "garden"
        }
    ],
    "materials" : [
        {
            "doubleSided" : true,
            "name" : "branco_exterior",
            "normalTexture" : {
                "index" : 0,
                "scale" : 0.5
            },
            "pbrMetallicRoughness" : {
                "baseColorTexture" : {
                    "index" : 1
                },
                "metallicFactor" : 0,
                "metallicRoughnessTexture" : {
                    "index" : 2
                }
            }
        },
        {
            "doubleSided" : true,
            "name" : "grass",
            "pbrMetallicRoughness" : {
                "baseColorTexture" : {
                    "index" : 3
                },
                "metallicFactor" : 0
            }
        }
    ],
    "meshes" : [
        {
            "name" : "Plane.008",
            "primitives" : [
                {
                    "attributes" : {
                        "POSITION" : 0,
                        "NORMAL" : 1,
                        "TEXCOORD_0" : 2
                    },
                    "indices" : 3,
                    "material" : 0
                },
                {
                    "attributes" : {
                        "POSITION" : 4,
                        "NORMAL" : 5,
                        "TEXCOORD_0" : 6
                    },
                    "indices" : 7,
                    "material" : 1
                }
            ]
        }
    ],
    "textures" : [
        {
            "sampler" : 0,
            "source" : 0
        },
        {
            "sampler" : 0,
            "source" : 1
        },
        {
            "sampler" : 0,
            "source" : 2
        },
        {
            "sampler" : 0,
            "source" : 3
        }
    ],
    "images" : [
        {
            "bufferView" : 4,
            "mimeType" : "image/png",
            "name" : "TexturesCom_Plaster_Plain_512_normal"
        },
        {
            "bufferView" : 5,
            "mimeType" : "image/png",
            "name" : "TexturesCom_Plaster_Plain_512_albedo"
        },
        {
            "bufferView" : 6,
            "mimeType" : "image/png",
            "name" : "TexturesCom_Plaster_Plain_512_roughness"
        },
        {
            "bufferView" : 11,
            "mimeType" : "image/jpeg",
            "name" : "TexturesCom_Grass0130_1_seamless_S"
        }
    ],
    "accessors" : [
        {
            "bufferView" : 0,
            "componentType" : 5126,
            "count" : 313,
            "max" : [
                10.550840377807617,
                0.26333338022232056,
                5.756852626800537
            ],
            "min" : [
                -12.140864372253418,
                -0.7366666197776794,
                -9.414416313171387
            ],
            "type" : "VEC3"
        },
        {
            "bufferView" : 1,
            "componentType" : 5126,
            "count" : 313,
            "type" : "VEC3"
        },
        {
            "bufferView" : 2,
            "componentType" : 5126,
            "count" : 313,
            "type" : "VEC2"
        },
        {
            "bufferView" : 3,
            "componentType" : 5123,
            "count" : 621,
            "type" : "SCALAR"
        },
        {
            "bufferView" : 7,
            "componentType" : 5126,
            "count" : 39,
            "max" : [
                10.450843811035156,
                0.24333341419696808,
                5.65685510635376
            ],
            "min" : [
                -12.04086685180664,
                0.24333341419696808,
                -9.314417839050293
            ],
            "type" : "VEC3"
        },
        {
            "bufferView" : 8,
            "componentType" : 5126,
            "count" : 39,
            "type" : "VEC3"
        },
        {
            "bufferView" : 9,
            "componentType" : 5126,
            "count" : 39,
            "type" : "VEC2"
        },
        {
            "bufferView" : 10,
            "componentType" : 5123,
            "count" : 87,
            "type" : "SCALAR"
        }
    ],
    "bufferViews" : [
        {
            "buffer" : 0,
            "byteLength" : 3756,
            "byteOffset" : 0
        },
        {
            "buffer" : 0,
            "byteLength" : 3756,
            "byteOffset" : 3756
        },
        {
            "buffer" : 0,
            "byteLength" : 2504,
            "byteOffset" : 7512
        },
        {
            "buffer" : 0,
            "byteLength" : 1242,
            "byteOffset" : 10016
        },
        {
            "buffer" : 0,
            "byteLength" : 1406566,
            "byteOffset" : 11260
        },
        {
            "buffer" : 0,
            "byteLength" : 298433,
            "byteOffset" : 1417828
        },
        {
            "buffer" : 0,
            "byteLength" : 234873,
            "byteOffset" : 1716264
        },
        {
            "buffer" : 0,
            "byteLength" : 468,
            "byteOffset" : 1951140
        },
        {
            "buffer" : 0,
            "byteLength" : 468,
            "byteOffset" : 1951608
        },
        {
            "buffer" : 0,
            "byteLength" : 312,
            "byteOffset" : 1952076
        },
        {
            "buffer" : 0,
            "byteLength" : 174,
            "byteOffset" : 1952388
        },
        {
            "buffer" : 0,
            "byteLength" : 281395,
            "byteOffset" : 1952564
        }
    ],
    "samplers" : [
        {
            "magFilter" : 9729,
            "minFilter" : 9987
        }
    ],
    "buffers" : [
        {
            "byteLength" : 2233960,
            "uri" : "data:application/octet-stream;base64,"
        }
    ]
}
